<svg width="1200" height="630" viewBox="0 0 1200 630" xmlns="http://www.w3.org/2000/svg">
  <defs>
    <linearGradient id="g" x1="0" x2="0" y1="1" y2="0">
      <stop offset="0%" stop-color="#93c5fd"/>
      <stop offset="100%" stop-color="#3b82f6"/>
    </linearGradient>
  </defs>
  <rect width="1200" height="630" fill="#0b1220"/>
  <g transform="translate(80,60)">
    <text x="0" y="0" fill="#d1d5db" font-family="Inter, system-ui" font-size="48">Audio EQ Visualizer</text>
    <g transform="translate(0,40)">
      <text x="0" y="40" fill="#9ca3af" font-family="Inter, system-ui" font-size="24">10-band realtime frequency bars with peak hold</text>
    </g>
    <g transform="translate(0,140)">
      <!-- Bars -->
      <g fill="url(#g)">
        <rect x="0"   y="220" width="60" height="180" rx="6"/>
        <rect x="90"  y="180" width="60" height="220" rx="6"/>
        <rect x="180" y="120" width="60" height="280" rx="6"/>
        <rect x="270" y="90"  width="60" height="310" rx="6"/>
        <rect x="360" y="150" width="60" height="250" rx="6"/>
        <rect x="450" y="190" width="60" height="210" rx="6"/>
        <rect x="540" y="160" width="60" height="240" rx="6"/>
        <rect x="630" y="130" width="60" height="270" rx="6"/>
        <rect x="720" y="200" width="60" height="200" rx="6"/>
        <rect x="810" y="240" width="60" height="160" rx="6"/>
      </g>
      <!-- Peaks -->
      <g fill="#ef4444">
        <rect x="0"   y="210" width="60" height="4" rx="2"/>
        <rect x="90"  y="170" width="60" height="4" rx="2"/>
        <rect x="180" y="110" width="60" height="4" rx="2"/>
        <rect x="270" y="80"  width="60" height="4" rx="2"/>
        <rect x="360" y="140" width="60" height="4" rx="2"/>
        <rect x="450" y="180" width="60" height="4" rx="2"/>
        <rect x="540" y="150" width="60" height="4" rx="2"/>
        <rect x="630" y="120" width="60" height="4" rx="2"/>
        <rect x="720" y="190" width="60" height="4" rx="2"/>
        <rect x="810" y="230" width="60" height="4" rx="2"/>
      </g>
      <!-- Labels -->
      <g fill="#9ca3af" font-family="Inter, system-ui" font-size="14" text-anchor="middle">
        <text x="30"  y="420">31</text>
        <text x="120" y="420">62</text>
        <text x="210" y="420">125</text>
        <text x="300" y="420">250</text>
        <text x="390" y="420">500</text>
        <text x="480" y="420">1k</text>
        <text x="570" y="420">2k</text>
        <text x="660" y="420">4k</text>
        <text x="750" y="420">8k</text>
        <text x="840" y="420">16k</text>
      </g>
    </g>
  </g>
</svg>
