<svg width="200" height="140" xmlns="http://www.w3.org/2000/svg">
  <rect width="200" height="140" fill="#1e293b"/>
  <g transform="translate(20,20)">
    <text x="0" y="-5" fill="#60a5fa" font-family="sans-serif" font-size="12">Heap Sort</text>
    
    <!-- Animated heap tree -->
    <circle cx="40" cy="20" r="8" fill="#ef4444">
      <animate attributeName="r" values="8;10;8" dur="2s" repeatCount="indefinite"/>
    </circle>
    <circle cx="20" cy="40" r="8" fill="#f97316"/>
    <circle cx="60" cy="40" r="8" fill="#eab308"/>
    <circle cx="10" cy="60" r="8" fill="#22c55e"/>
    <circle cx="30" cy="60" r="8" fill="#3b82f6"/>
    <circle cx="50" cy="60" r="8" fill="#8b5cf6"/>
    <circle cx="70" cy="60" r="8" fill="#ec4899"/>
    
    <!-- Animated tree connections -->
    <line x1="40" y1="28" x2="20" y2="32" stroke="#60a5fa" stroke-width="1">
      <animate attributeName="stroke-width" values="1;3;1" dur="2s" repeatCount="indefinite"/>
    </line>
    <line x1="40" y1="28" x2="60" y2="32" stroke="#60a5fa" stroke-width="1">
      <animate attributeName="stroke-width" values="1;3;1" dur="2s" repeatCount="indefinite"/>
    </line>
    <line x1="20" y1="48" x2="10" y2="52" stroke="#60a5fa" stroke-width="1"/>
    <line x1="20" y1="48" x2="30" y2="52" stroke="#60a5fa" stroke-width="1"/>
    <line x1="60" y1="48" x2="50" y2="52" stroke="#60a5fa" stroke-width="1"/>
    <line x1="60" y1="48" x2="70" y2="52" stroke="#60a5fa" stroke-width="1"/>
    
    <!-- Heap values -->
    <text x="32" y="25" fill="white" font-family="sans-serif" font-size="10">8</text>
    <text x="16" y="45" fill="white" font-family="sans-serif" font-size="10">7</text>
    <text x="56" y="45" fill="white" font-family="sans-serif" font-size="10">6</text>
    
    <!-- Heapify indicator -->
    <path d="M40 35 Q45 45 40 55" stroke="#60a5fa" stroke-width="2" fill="none" opacity="0">
      <animate attributeName="opacity" values="0;1;0" dur="3s" repeatCount="indefinite"/>
    </path>
    <text x="45" y="50" fill="#60a5fa" font-family="sans-serif" font-size="8">heapify</text>
  </g>
</svg>
