<svg width="1200" height="630" viewBox="0 0 1200 630" xmlns="http://www.w3.org/2000/svg">
	<defs>
		<radialGradient id="bgGlow" cx="0.5" cy="0.5" r="0.7">
			<stop offset="0%" stop-color="#1e3a8a" stop-opacity="0.4"/>
			<stop offset="70%" stop-color="#0b1220" stop-opacity="0.9"/>
			<stop offset="100%" stop-color="#0b1220"/>
		</radialGradient>
		<linearGradient id="p1" x1="0" y1="1" x2="0" y2="0">
			<stop offset="0%" stop-color="#1e40af"/>
			<stop offset="100%" stop-color="#3b82f6"/>
		</linearGradient>
		<linearGradient id="p2" x1="0" y1="1" x2="0" y2="0">
			<stop offset="0%" stop-color="#0d9488"/>
			<stop offset="100%" stop-color="#5eead4"/>
		</linearGradient>
		<linearGradient id="p3" x1="0" y1="1" x2="0" y2="0">
			<stop offset="0%" stop-color="#b45309"/>
			<stop offset="100%" stop-color="#fbbf24"/>
		</linearGradient>
	</defs>
	<rect width="1200" height="630" fill="#0b1220"/>
	<rect width="1200" height="630" fill="url(#bgGlow)"/>
	<g transform="translate(80,60)">
		<text x="0" y="0" fill="#d1d5db" font-family="Inter, system-ui" font-size="48">3D Particle Field</text>
		<text x="0" y="70" fill="#9ca3af" font-family="Inter, system-ui" font-size="24">Audio-reactive particle energy</text>
	</g>
	<!-- Particle clusters -->
	<g stroke="#1e293b" stroke-width="0.5">
		<g fill="url(#p1)" opacity="0.9">
			<circle cx="300" cy="260" r="6"/>
			<circle cx="340" cy="300" r="4"/>
			<circle cx="360" cy="250" r="5"/>
			<circle cx="320" cy="220" r="3"/>
			<circle cx="370" cy="290" r="3"/>
			<circle cx="390" cy="240" r="4"/>
		</g>
		<g fill="url(#p2)" opacity="0.85">
			<circle cx="600" cy="330" r="7"/>
			<circle cx="640" cy="360" r="5"/>
			<circle cx="660" cy="310" r="4"/>
			<circle cx="620" cy="300" r="3"/>
			<circle cx="680" cy="350" r="3"/>
			<circle cx="620" cy="360" r="4"/>
		</g>
		<g fill="url(#p3)" opacity="0.8">
			<circle cx="880" cy="250" r="6"/>
			<circle cx="920" cy="280" r="4"/>
			<circle cx="900" cy="230" r="5"/>
			<circle cx="860" cy="220" r="3"/>
			<circle cx="940" cy="270" r="3"/>
			<circle cx="910" cy="300" r="4"/>
		</g>
	</g>
	<!-- Depth rings -->
	<g stroke="#1e3a8a" stroke-width="1" opacity="0.25">
		<circle cx="600" cy="315" r="120" fill="none"/>
		<circle cx="600" cy="315" r="180" fill="none"/>
		<circle cx="600" cy="315" r="240" fill="none"/>
	</g>
</svg>
